# xmcd
#
# Track frame offsets:
#	150
#	18594
#	32330
#	46909
#	60961
#	75002
#	92425
#	107005
#	120168
#	137059
#	148818
#	162802
#	184337
#	197856
#
# Disc length: 2842
#
# Revision: 3
# Processed by: cddbd v1.5.1PL0 Copyright (c) Steve Scherf et al.
# Submitted via: VisiTrax 2.9.9.209 - For more info visit www.synapsa.com
# Normalized: r2:DSETVAR1
#
DISCID=a50b180e
DTITLE=Various Artist - Mr Music Country 03-04
DYEAR=2004
DGENRE=Country
TTITLE0=Razzy Bailey - City of lost angels
TTITLE1=Bobby Flores - One more time
TTITLE2=Josh Logan - Tryin' to love the hurt right out of me
TTITLE3=Robert Mizzell - Never tell me it's for my sake
TTITLE4=Jett Williams - A girl who knows too much
TTITLE5=Orange - Good time Charlie's got the blues
TTITLE6=Carolyn Richards - Patsy, we're still lovin' you
TTITLE7=Moore Brothers - Texas goin' on
TTITLE8=Don Rigsby - Little white cross on highway 13
TTITLE9=Martina McBride - Reluctant daughter
TTITLE10=Bobby Broome - (I pray there's a) honky tonk in Heaven
TTITLE11=Kelly Lang - Goodbye darlin' (a tribute to Conway Twitty)
TTITLE12=Wesley lalacy - Hook, line and sinker
TTITLE13=Guy Clark - Arizona star
EXTD=
EXTT0=
EXTT1=
EXTT2=
EXTT3=
EXTT4=
EXTT5=
EXTT6=
EXTT7=
EXTT8=
EXTT9=
EXTT10=
EXTT11=
EXTT12=
EXTT13=
PLAYORDER=
